<?xml version="1.0" encoding="UTF-8" standalone="no"?>
<svg
   xmlns:osb="http://www.openswatchbook.org/uri/2009/osb"
   xmlns:dc="http://purl.org/dc/elements/1.1/"
   xmlns:cc="http://creativecommons.org/ns#"
   xmlns:rdf="http://www.w3.org/1999/02/22-rdf-syntax-ns#"
   xmlns:svg="http://www.w3.org/2000/svg"
   xmlns="http://www.w3.org/2000/svg"
   xmlns:sodipodi="http://sodipodi.sourceforge.net/DTD/sodipodi-0.dtd"
   xmlns:inkscape="http://www.inkscape.org/namespaces/inkscape"
   version="1.1"
   width="512"
   height="512"
   viewBox="0 0 512 512"
   id="svg2"
   inkscape:version="0.91 r13725"
   sodipodi:docname="joinirc.svg">
  <sodipodi:namedview
     pagecolor="#ffffff"
     bordercolor="#666666"
     borderopacity="1"
     objecttolerance="10"
     gridtolerance="10"
     guidetolerance="10"
     inkscape:pageopacity="0"
     inkscape:pageshadow="2"
     inkscape:window-width="1366"
     inkscape:window-height="706"
     id="namedview34"
     showgrid="false"
     inkscape:zoom="0.4609375"
     inkscape:cx="-160.54237"
     inkscape:cy="256"
     inkscape:window-x="0"
     inkscape:window-y="40"
     inkscape:window-maximized="1"
     inkscape:current-layer="svg2" />
  <metadata
     id="metadata11">
    <rdf:RDF>
      <cc:Work
         rdf:about="">
        <dc:format>image/svg+xml</dc:format>
        <dc:type
           rdf:resource="http://purl.org/dc/dcmitype/StillImage" />
        <dc:title />
      </cc:Work>
    </rdf:RDF>
  </metadata>
  <defs
     id="defs9">
    <linearGradient
       osb:paint="solid"
       id="linearGradient6807">
      <stop
         id="stop6809"
         offset="0"
         style="stop-color:#000000;stop-opacity:1;" />
    </linearGradient>
  </defs>
  <g
     id="icomoon-ignore" />
  <g
     id="text6753"
     style="font-style:normal;font-weight:normal;font-size:160px;line-height:125%;font-family:sans-serif;letter-spacing:0px;word-spacing:0px;fill:#ffffff;fill-opacity:1;stroke:#000000;stroke-width:25;stroke-linecap:round;stroke-linejoin:round;stroke-opacity:1;stroke-miterlimit:4;stroke-dasharray:none;fill-rule:nonzero">
    <path
       id="path6780"
       style="font-style:normal;font-variant:normal;font-weight:bold;font-stretch:normal;font-size:240px;font-family:Cantarell;-inkscape-font-specification:'Cantarell Bold';letter-spacing:-15px;fill:#ffffff;fill-opacity:1;stroke:#000000;stroke-opacity:1;stroke-width:25;stroke-miterlimit:4;stroke-dasharray:none;stroke-linecap:round;stroke-linejoin:round;fill-rule:nonzero"
       d="m 126.99525,164.90712 c 0,9.6 -2.4,18 -6.96,24.96 -4.56,6.96 -14.16,10.56 -29.280005,10.56 -5.76,0 -11.04,-0.72 -15.6,-1.92 l -5.28,-1.2 -4.56,25.92 4.08,1.44 c 7.92,1.92 16.08,3.12 24.72,3.12 24.720005,0 41.280005,-6 49.680005,-18 8.4,-12 12.72,-26.88 12.72,-44.88 l 0,-105.359999 -29.52,0 0,105.359999 z" />
    <path
       id="path6782"
       style="font-style:normal;font-variant:normal;font-weight:bold;font-stretch:normal;font-size:240px;font-family:Cantarell;-inkscape-font-specification:'Cantarell Bold';letter-spacing:-15px;fill:#ffffff;fill-opacity:1;stroke:#000000;stroke-opacity:1;stroke-width:25;stroke-miterlimit:4;stroke-dasharray:none;stroke-linecap:round;stroke-linejoin:round;fill-rule:nonzero"
       d="m 227.66025,228.02712 c 36.48,0 60.48,-24.48 60.48,-60.72 0,-36 -23.52,-59.76 -60,-59.76 -36.96,0 -60.48,23.52 -60.48,60.24 0,36 23.52,60.24 60,60.24 z m 0,-97.68 c 19.92,0 30.96,16.56 30.96,37.44 0,21.12 -10.32,37.2 -30.96,37.2 -19.68,0 -30.48,-16.8 -30.48,-37.2 0,-20.16 10.8,-37.44 30.48,-37.44 z" />
    <path
       id="path6784"
       style="font-style:normal;font-variant:normal;font-weight:bold;font-stretch:normal;font-size:240px;font-family:Cantarell;-inkscape-font-specification:'Cantarell Bold';letter-spacing:-15px;fill:#ffffff;fill-opacity:1;stroke:#000000;stroke-opacity:1;stroke-width:25;stroke-miterlimit:4;stroke-dasharray:none;stroke-linecap:round;stroke-linejoin:round;fill-rule:nonzero"
       d="m 312.77025,96.267121 c 9.36,0 17.76,-8.4 17.76,-17.76 0,-9.36 -8.4,-17.76 -17.76,-17.76 -9.36,0 -17.76,8.4 -17.76,17.76 0,9.36 8.4,17.76 17.76,17.76 z m -14.4,13.919999 0,115.44 28.8,0 0,-115.44 -28.8,0 z" />
    <path
       id="path6786"
       style="font-style:normal;font-variant:normal;font-weight:bold;font-stretch:normal;font-size:240px;font-family:Cantarell;-inkscape-font-specification:'Cantarell Bold';letter-spacing:-15px;fill:#ffffff;fill-opacity:1;stroke:#000000;stroke-opacity:1;stroke-width:25;stroke-miterlimit:4;stroke-dasharray:none;stroke-linecap:round;stroke-linejoin:round;fill-rule:nonzero"
       d="m 451.34775,159.14712 c 0,-31.44 -9.6,-51.6 -42.48,-51.6 -12.96,0 -26.4,3.36 -39.84,10.08 l -4.32,-7.44 -20.64,0 0,115.44 29.52,0 0,-86.88 c 11.76,-4.32 20.88,-6.48 27.6,-6.48 14.4,0 20.64,9.84 20.64,23.28 l 0,70.08 29.52,0 0,-66.48 z" />
  </g>
  <g
     id="text6757"
     style="font-style:normal;font-weight:normal;font-size:160px;line-height:125%;font-family:sans-serif;letter-spacing:0px;word-spacing:0px;fill:#ffffff;fill-opacity:1;stroke:#000000;stroke-width:25;stroke-linecap:round;stroke-linejoin:round;stroke-opacity:1;stroke-miterlimit:4;stroke-dasharray:none;fill-rule:nonzero">
    <path
       id="path6773"
       style="font-style:normal;font-variant:normal;font-weight:normal;font-stretch:normal;font-family:Cantarell;-inkscape-font-specification:Cantarell;letter-spacing:-15px;stroke:#000000;stroke-opacity:1;stroke-width:25;stroke-miterlimit:4;stroke-dasharray:none;stroke-linejoin:round;stroke-linecap:round;fill:#ffffff;fill-opacity:1;fill-rule:nonzero"
       d="m 290.27254,316.01626 c 23.84,0 37.92,-16.64 37.92,-40.48 0,-24.32 -13.12,-40 -37.28,-40 -24.16,0 -38.08,16 -38.08,40.32 0,24 13.44,40.16 37.44,40.16 z m 0.64,-69.92 c 15.68,0 24,13.92 24,29.76 0,16.16 -8.16,29.6 -24,29.6 -16.32,0 -24.8,-13.12 -24.8,-29.6 0,-16.16 8.48,-29.76 24.8,-29.76 z" />
    <path
       id="path6775"
       style="font-style:normal;font-variant:normal;font-weight:normal;font-stretch:normal;font-family:Cantarell;-inkscape-font-specification:Cantarell;letter-spacing:-15px;stroke:#000000;stroke-opacity:1;stroke-width:25;stroke-miterlimit:4;stroke-dasharray:none;stroke-linejoin:round;stroke-linecap:round;fill:#ffffff;fill-opacity:1;fill-rule:nonzero"
       d="m 345.25754,286.25626 0,-48.8 -13.28,0 0,52 c 0,16.32 9.12,26.72 25.44,26.72 8.32,0 17.28,-2.72 27.2,-7.84 l 3.04,6.24 9.12,0 0,-77.12 -13.28,0 0,61.76 c -7.84,3.68 -14.88,5.6 -21.28,5.6 -12.8,0 -16.96,-5.6 -16.96,-18.56 z" />
    <path
       id="path6777"
       style="font-style:normal;font-variant:normal;font-weight:normal;font-stretch:normal;font-family:Cantarell;-inkscape-font-specification:Cantarell;letter-spacing:-15px;stroke:#000000;stroke-opacity:1;stroke-width:25;stroke-miterlimit:4;stroke-dasharray:none;stroke-linejoin:round;stroke-linecap:round;fill:#ffffff;fill-opacity:1;fill-rule:nonzero"
       d="m 437.77254,235.53626 c -7.52,0 -14.56,2.56 -21.28,7.68 l -2.88,-5.92 -9.6,0 0,77.28 13.28,0 0,-61.76 c 5.6,-3.84 11.04,-5.76 16.8,-5.76 4.16,0 8,0.96 11.52,2.56 l 4.8,-11.84 c -3.84,-1.76 -6.88,-2.24 -12.64,-2.24 z" />
  </g>
  <g
     style="font-style:normal;font-weight:normal;font-size:160px;line-height:125%;font-family:sans-serif;letter-spacing:0px;word-spacing:0px;fill:#acc2da;fill-opacity:1;stroke:#000000;stroke-width:0;stroke-linecap:round;stroke-linejoin:round;stroke-opacity:1;stroke-miterlimit:4;stroke-dasharray:none;fill-rule:nonzero"
     id="g6813">
    <path
       d="m 126.99525,164.90712 c 0,9.6 -2.4,18 -6.96,24.96 -4.56,6.96 -14.16,10.56 -29.280005,10.56 -5.76,0 -11.04,-0.72 -15.6,-1.92 l -5.28,-1.2 -4.56,25.92 4.08,1.44 c 7.92,1.92 16.08,3.12 24.72,3.12 24.720005,0 41.280005,-6 49.680005,-18 8.4,-12 12.72,-26.88 12.72,-44.88 l 0,-105.359999 -29.52,0 0,105.359999 z"
       style="font-style:normal;font-variant:normal;font-weight:bold;font-stretch:normal;font-size:240px;font-family:Cantarell;-inkscape-font-specification:'Cantarell Bold';letter-spacing:-15px;fill:#acc2da;fill-opacity:1;stroke:#000000;stroke-opacity:1;stroke-width:0;stroke-miterlimit:4;stroke-dasharray:none;stroke-linecap:round;stroke-linejoin:round;fill-rule:nonzero"
       id="path6815" />
    <path
       d="m 227.66025,228.02712 c 36.48,0 60.48,-24.48 60.48,-60.72 0,-36 -23.52,-59.76 -60,-59.76 -36.96,0 -60.48,23.52 -60.48,60.24 0,36 23.52,60.24 60,60.24 z m 0,-97.68 c 19.92,0 30.96,16.56 30.96,37.44 0,21.12 -10.32,37.2 -30.96,37.2 -19.68,0 -30.48,-16.8 -30.48,-37.2 0,-20.16 10.8,-37.44 30.48,-37.44 z"
       style="font-style:normal;font-variant:normal;font-weight:bold;font-stretch:normal;font-size:240px;font-family:Cantarell;-inkscape-font-specification:'Cantarell Bold';letter-spacing:-15px;fill:#acc2da;fill-opacity:1;stroke:#000000;stroke-opacity:1;stroke-width:0;stroke-miterlimit:4;stroke-dasharray:none;stroke-linecap:round;stroke-linejoin:round;fill-rule:nonzero"
       id="path6817" />
    <path
       d="m 312.77025,96.267121 c 9.36,0 17.76,-8.4 17.76,-17.76 0,-9.36 -8.4,-17.76 -17.76,-17.76 -9.36,0 -17.76,8.4 -17.76,17.76 0,9.36 8.4,17.76 17.76,17.76 z m -14.4,13.919999 0,115.44 28.8,0 0,-115.44 -28.8,0 z"
       style="font-style:normal;font-variant:normal;font-weight:bold;font-stretch:normal;font-size:240px;font-family:Cantarell;-inkscape-font-specification:'Cantarell Bold';letter-spacing:-15px;fill:#acc2da;fill-opacity:1;stroke:#000000;stroke-opacity:1;stroke-width:0;stroke-miterlimit:4;stroke-dasharray:none;stroke-linecap:round;stroke-linejoin:round;fill-rule:nonzero"
       id="path6819" />
    <path
       d="m 451.34775,159.14712 c 0,-31.44 -9.6,-51.6 -42.48,-51.6 -12.96,0 -26.4,3.36 -39.84,10.08 l -4.32,-7.44 -20.64,0 0,115.44 29.52,0 0,-86.88 c 11.76,-4.32 20.88,-6.48 27.6,-6.48 14.4,0 20.64,9.84 20.64,23.28 l 0,70.08 29.52,0 0,-66.48 z"
       style="font-style:normal;font-variant:normal;font-weight:bold;font-stretch:normal;font-size:240px;font-family:Cantarell;-inkscape-font-specification:'Cantarell Bold';letter-spacing:-15px;fill:#acc2da;fill-opacity:1;stroke:#000000;stroke-opacity:1;stroke-width:0;stroke-miterlimit:4;stroke-dasharray:none;stroke-linecap:round;stroke-linejoin:round;fill-rule:nonzero"
       id="path6821" />
  </g>
  <g
     style="font-style:normal;font-weight:normal;font-size:160px;line-height:125%;font-family:sans-serif;letter-spacing:0px;word-spacing:0px;fill:#7397c0;fill-opacity:1;stroke:#000000;stroke-width:0;stroke-linecap:round;stroke-linejoin:round;stroke-opacity:1;stroke-miterlimit:4;stroke-dasharray:none;fill-rule:nonzero"
     id="g6823">
    <path
       d="m 290.27254,316.01626 c 23.84,0 37.92,-16.64 37.92,-40.48 0,-24.32 -13.12,-40 -37.28,-40 -24.16,0 -38.08,16 -38.08,40.32 0,24 13.44,40.16 37.44,40.16 z m 0.64,-69.92 c 15.68,0 24,13.92 24,29.76 0,16.16 -8.16,29.6 -24,29.6 -16.32,0 -24.8,-13.12 -24.8,-29.6 0,-16.16 8.48,-29.76 24.8,-29.76 z"
       style="font-style:normal;font-variant:normal;font-weight:normal;font-stretch:normal;font-family:Cantarell;-inkscape-font-specification:Cantarell;letter-spacing:-15px;stroke:#000000;stroke-opacity:1;stroke-width:0;stroke-miterlimit:4;stroke-dasharray:none;stroke-linejoin:round;stroke-linecap:round;fill:#7397c0;fill-opacity:1;fill-rule:nonzero"
       id="path6825" />
    <path
       d="m 345.25754,286.25626 0,-48.8 -13.28,0 0,52 c 0,16.32 9.12,26.72 25.44,26.72 8.32,0 17.28,-2.72 27.2,-7.84 l 3.04,6.24 9.12,0 0,-77.12 -13.28,0 0,61.76 c -7.84,3.68 -14.88,5.6 -21.28,5.6 -12.8,0 -16.96,-5.6 -16.96,-18.56 z"
       style="font-style:normal;font-variant:normal;font-weight:normal;font-stretch:normal;font-family:Cantarell;-inkscape-font-specification:Cantarell;letter-spacing:-15px;stroke:#000000;stroke-opacity:1;stroke-width:0;stroke-miterlimit:4;stroke-dasharray:none;stroke-linejoin:round;stroke-linecap:round;fill:#7397c0;fill-opacity:1;fill-rule:nonzero"
       id="path6827" />
    <path
       d="m 437.77254,235.53626 c -7.52,0 -14.56,2.56 -21.28,7.68 l -2.88,-5.92 -9.6,0 0,77.28 13.28,0 0,-61.76 c 5.6,-3.84 11.04,-5.76 16.8,-5.76 4.16,0 8,0.96 11.52,2.56 l 4.8,-11.84 c -3.84,-1.76 -6.88,-2.24 -12.64,-2.24 z"
       style="font-style:normal;font-variant:normal;font-weight:normal;font-stretch:normal;font-family:Cantarell;-inkscape-font-specification:Cantarell;letter-spacing:-15px;stroke:#000000;stroke-opacity:1;stroke-width:0;stroke-miterlimit:4;stroke-dasharray:none;stroke-linejoin:round;stroke-linecap:round;fill:#7397c0;fill-opacity:1;fill-rule:nonzero"
       id="path6829" />
  </g>
  <text
     xml:space="preserve"
     style="font-style:normal;font-weight:normal;font-size:171.58088684px;line-height:125%;font-family:sans-serif;letter-spacing:0px;word-spacing:0px;fill:#ffffff;fill-opacity:1;stroke:#000000;stroke-width:25.00000019;stroke-linecap:butt;stroke-linejoin:miter;stroke-opacity:1;stroke-miterlimit:4;stroke-dasharray:none"
     x="3.4534533"
     y="523.4671"
     id="text4162"
     sodipodi:linespacing="125%"
     transform="scale(1.0723805,0.93250482)"><tspan
       sodipodi:role="line"
       id="tspan4164"
       x="3.4534533"
       y="523.4671"
       style="font-style:normal;font-variant:normal;font-weight:bold;font-stretch:normal;font-size:257.37133789px;font-family:'Source Code Pro';-inkscape-font-specification:'Source Code Pro Bold';stroke:#000000;stroke-opacity:1;fill:#ffffff;fill-opacity:1;stroke-width:25.00000019;stroke-miterlimit:4;stroke-dasharray:none">IRC</tspan></text>
  <text
     transform="scale(1.0723805,0.93250482)"
     sodipodi:linespacing="125%"
     id="text4166"
     y="523.4671"
     x="3.4534533"
     style="font-style:normal;font-weight:normal;font-size:171.58088684px;line-height:125%;font-family:sans-serif;letter-spacing:0px;word-spacing:0px;fill:#4c78ab;fill-opacity:1;stroke:#000000;stroke-width:0;stroke-linecap:butt;stroke-linejoin:miter;stroke-opacity:1;stroke-miterlimit:4;stroke-dasharray:none;"
     xml:space="preserve"><tspan
       style="font-style:normal;font-variant:normal;font-weight:bold;font-stretch:normal;font-size:257.37133789px;font-family:'Source Code Pro';-inkscape-font-specification:'Source Code Pro Bold';stroke:#000000;stroke-opacity:1;fill:#4c78ab;fill-opacity:1;stroke-width:0;stroke-miterlimit:4;stroke-dasharray:none;"
       y="523.4671"
       x="3.4534533"
       id="tspan4168"
       sodipodi:role="line">IRC</tspan></text>
</svg>
